<?xml version="1.0" standalone="no"?>
<!DOCTYPE svg PUBLIC "-//W3C//DTD SVG 20010904//EN"
 "http://www.w3.org/TR/2001/REC-SVG-20010904/DTD/svg10.dtd">
<svg version="1.0" xmlns="http://www.w3.org/2000/svg"
 width="600.000000pt" height="584.000000pt" viewBox="0 0 600.000000 584.000000"
 preserveAspectRatio="xMidYMid meet">
<metadata>
Created by potrace 1.15, written by Peter Selinger 2001-2017
</metadata>
<g transform="translate(0.000000,584.000000) scale(0.100000,-0.100000)"
fill="#000000" stroke="none">
<path d="M2720 5495 c-728 -91 -1360 -540 -1688 -1200 -150 -301 -223 -617
-223 -965 1 -371 86 -711 258 -1030 211 -391 557 -726 943 -913 60 -28 109
-54 109 -57 1 -3 -88 -5 -196 -5 l-198 0 0 -395 0 -395 1265 0 1265 0 0 395 0
395 -198 0 c-108 0 -197 2 -197 5 0 3 40 23 88 46 225 105 486 301 661 497
371 418 561 912 561 1462 0 733 -357 1397 -976 1813 -421 283 -962 411 -1474
347z m552 -51 c696 -95 1304 -526 1617 -1144 113 -222 180 -434 215 -677 21
-147 21 -439 0 -582 -110 -757 -593 -1380 -1299 -1677 -68 -29 -91 -34 -161
-34 l-82 0 29 53 c39 73 59 157 59 250 0 73 1 78 19 72 13 -4 30 3 51 22 37
33 70 137 70 219 0 133 -59 316 -170 531 l-69 132 27 5 c15 3 142 22 282 42
140 19 332 46 425 60 94 13 204 29 245 34 228 31 233 32 241 65 8 32 31 866
25 873 -3 2 -139 -13 -303 -33 -498 -61 -1338 -164 -1512 -186 -91 -11 -179
-18 -197 -14 -19 3 -46 0 -66 -9 -18 -8 -236 -39 -498 -71 -256 -30 -480 -58
-497 -61 l-33 -5 -1 -442 c-2 -549 -1 -507 -11 -507 -4 0 -8 216 -8 480 l0
479 -227 380 -228 380 -5 -412 -5 -412 139 -275 c171 -339 317 -623 325 -632
6 -6 181 18 189 27 3 2 -25 23 -62 46 -67 44 -80 59 -48 59 10 0 29 11 42 25
17 18 34 25 62 25 22 0 47 4 57 10 13 7 29 4 57 -10 21 -11 46 -20 56 -20 12
0 18 -8 18 -21 0 -12 8 -27 17 -34 15 -11 4 -17 -77 -43 -70 -22 -97 -27 -103
-19 -6 8 -7 7 -4 -3 5 -18 2 -18 262 19 110 15 201 27 203 26 1 -1 -20 -51
-47 -111 -65 -145 -91 -232 -98 -330 -6 -87 7 -163 38 -226 21 -42 77 -78 89
-58 4 7 10 -37 12 -97 6 -114 22 -179 64 -245 l24 -38 -84 0 c-73 0 -94 4
-163 34 -323 138 -584 327 -801 581 -310 361 -484 790 -512 1259 -32 532 131
1043 464 1460 138 173 361 369 551 486 168 104 424 209 623 257 222 53 549 69
774 37z m-1849 -1877 l107 -191 -2 -275 -3 -276 -33 69 c-18 38 -30 71 -27 74
6 6 5 8 32 -48 l22 -45 0 244 1 244 -112 201 -113 201 -3 -198 c-2 -181 -1
-202 18 -244 28 -63 24 -78 -5 -23 -23 44 -24 51 -24 275 0 270 -16 271 142
-8z m-103 87 c0 -8 7 -22 16 -31 8 -9 13 -22 10 -30 -3 -8 -1 -11 4 -8 6 3 10
-3 10 -15 0 -12 5 -18 10 -15 6 3 10 -3 10 -14 0 -12 5 -21 10 -21 6 0 10 -9
10 -19 0 -10 7 -21 15 -25 8 -3 15 -14 15 -24 0 -11 7 -25 15 -32 8 -7 15 -19
15 -26 0 -8 4 -14 9 -14 13 0 31 -113 20 -124 -6 -6 -9 -3 -9 8 0 9 -7 24 -15
32 -8 9 -15 24 -15 35 0 10 -5 19 -11 19 -7 0 -10 12 -7 30 3 17 1 30 -4 30
-4 0 -8 -6 -8 -12 0 -17 -26 21 -35 52 -4 14 -10 27 -14 30 -3 3 -21 33 -38
67 -32 60 -43 123 -23 123 6 0 10 -7 10 -16z m3380 -139 c7 -8 22 -15 34 -15
16 0 6 -15 -51 -69 l-72 -68 -43 8 c-24 4 -62 8 -85 9 l-42 0 15 28 c7 15 14
33 14 40 0 6 9 12 20 12 10 0 34 13 53 30 21 18 41 27 53 24 11 -3 30 -1 44 5
35 14 46 13 60 -4z m-556 -30 c12 -9 31 -12 52 -9 29 4 36 2 46 -20 6 -14 18
-26 27 -26 22 0 6 -13 -69 -56 -83 -47 -118 -50 -204 -17 -58 22 -66 27 -50
36 11 6 22 15 26 21 4 6 13 5 25 -5 16 -13 17 -13 4 3 -20 26 -7 47 28 46 16
-1 42 9 58 20 33 25 33 25 57 7z m-1351 -81 c35 -34 41 -71 35 -218 l-5 -122
166 0 166 0 0 140 c0 149 9 191 46 214 25 16 40 6 65 -46 14 -29 19 -70 22
-197 l4 -160 33 -50 c61 -95 361 -700 388 -785 35 -111 48 -216 36 -293 -15
-89 -42 -146 -70 -147 -4 0 -10 35 -13 78 -11 116 -66 493 -76 511 -4 9 -18
25 -30 36 l-22 20 6 -35 c3 -19 13 -75 21 -125 19 -115 18 -133 -4 -70 -71
199 -219 340 -408 389 -134 35 -339 12 -456 -51 -143 -78 -253 -231 -292 -408
-21 -93 -17 -23 5 105 25 144 25 156 1 163 -17 4 -22 -3 -30 -42 -13 -59 -37
-228 -59 -411 -19 -160 -31 -179 -65 -106 -45 96 -44 215 4 367 26 84 205 449
336 689 l90 165 5 155 c5 152 16 206 49 247 16 18 23 17 52 -13z m-1382 -46
c6 -22 12 -81 14 -130 2 -50 6 -92 9 -95 11 -11 16 66 7 112 -5 27 -7 52 -5
55 9 8 24 -24 24 -52 0 -20 4 -26 15 -22 11 5 15 -1 15 -22 0 -16 -4 -35 -9
-42 -4 -7 -4 -36 1 -63 10 -53 6 -98 -5 -69 -3 8 -8 27 -11 41 -8 36 -35 47
-28 12 4 -24 3 -24 -19 -13 -13 7 -25 13 -26 14 -10 8 -49 187 -42 192 5 3 7
10 4 15 -4 5 -3 9 2 9 4 0 7 20 5 45 -2 25 -1 52 2 61 10 25 34 0 47 -48z
m914 -4 c21 -8 46 -13 57 -11 10 3 18 1 18 -3 0 -5 12 -2 28 6 36 18 39 18 47
-7 6 -17 -5 -34 -51 -83 l-59 -61 63 60 c56 53 64 58 73 43 6 -10 19 -18 30
-18 37 0 14 -24 -72 -75 -184 -109 -167 -96 -140 -106 13 -5 22 -12 19 -14 -3
-3 -16 -1 -29 4 -17 6 -33 4 -54 -6 -27 -13 -28 -13 -11 1 11 9 18 18 15 20
-2 2 -61 21 -131 41 -71 21 -128 41 -128 45 0 4 14 13 30 20 17 7 30 19 30 26
0 22 19 17 64 -17 l41 -31 -44 39 c-39 35 -42 42 -32 61 20 37 52 28 84 -23
16 -25 31 -45 34 -45 5 0 -3 14 -29 52 -22 32 -22 38 -3 38 8 0 34 13 57 30
51 35 46 34 93 14z m1375 -208 c0 -124 -3 -227 -7 -229 -18 -10 -145 -18 -139
-9 3 6 33 13 66 17 l60 7 0 207 0 207 -62 -7 c-35 -5 -112 -13 -173 -19 -60
-7 -112 -13 -115 -13 -3 -1 -6 3 -8 8 -2 8 260 47 361 54 16 1 17 -16 17 -223z
m-273 -42 c25 -25 27 -52 8 -96 -5 -13 -3 -18 9 -18 9 0 16 -4 16 -10 0 -5 9
-19 19 -29 19 -19 19 -20 -20 -47 -22 -15 -41 -25 -43 -23 -2 2 -24 38 -50 79
-36 58 -46 84 -46 116 0 25 5 44 13 47 31 13 69 6 94 -19z m-1492 -114 c4 -6
15 -8 26 -5 28 9 24 -1 -22 -49 -22 -24 -47 -52 -54 -62 -8 -11 -15 -14 -15
-7 0 8 -9 9 -32 2 -18 -5 -53 -9 -77 -9 -35 0 -42 3 -33 12 7 7 12 22 12 34 0
13 8 25 19 29 10 3 26 14 36 25 10 11 30 20 44 20 14 0 33 5 41 10 20 13 47
13 55 0z m2285 -48 c0 -5 9 -13 20 -18 19 -8 17 -13 -33 -62 l-53 -52 -70 6
-70 7 15 33 c8 19 21 34 29 34 7 0 24 12 37 26 18 19 32 25 49 22 14 -3 31 -1
38 3 17 11 38 11 38 1z m-1109 -406 c117 -21 201 -66 290 -155 123 -123 179
-270 179 -470 0 -127 -16 -197 -70 -306 -72 -147 -202 -276 -329 -326 -145
-57 -365 -23 -513 79 -122 84 -221 237 -254 393 -19 90 -14 264 10 354 85 315
362 489 687 431z m-725 -633 c0 -131 16 -208 64 -311 58 -125 156 -225 280
-287 63 -32 172 -65 213 -65 19 0 27 -4 25 -12 -4 -10 -50 -14 -179 -16 l-175
-2 -47 31 c-62 41 -130 118 -162 183 -38 78 -48 159 -41 336 6 135 15 260 20
260 1 0 2 -53 2 -117z m1233 -224 c2 -166 -33 -269 -127 -370 -83 -90 -109
-99 -293 -99 -195 0 -234 9 -124 27 44 8 107 26 140 42 212 100 379 361 387
604 2 73 16 -89 17 -204z m-1093 -449 l65 -49 385 0 c240 0 395 4 412 10 15 6
50 28 79 50 l52 39 346 0 345 0 0 -350 0 -350 -1220 0 -1220 0 0 350 0 350
345 0 346 0 65 -50z"/>
<path d="M3925 4419 c-33 -4 -138 -17 -234 -28 -96 -12 -176 -22 -177 -24 -3
-2 146 -162 436 -467 91 -96 184 -195 206 -219 l40 -44 270 32 c148 18 282 34
298 37 l29 6 -35 35 -35 34 -54 -29 -54 -30 -90 22 c-56 14 -85 25 -77 30 8 4
11 14 8 21 -11 29 169 37 208 9 11 -8 27 -14 36 -14 8 0 -16 30 -55 67 -38 37
-186 181 -327 320 -288 283 -252 261 -393 242z m146 -259 c10 -6 38 -13 61
-16 24 -3 52 -15 64 -25 11 -10 25 -19 32 -19 6 0 13 -4 16 -9 3 -4 -33 -16
-80 -25 l-85 -17 -92 32 c-94 33 -125 49 -94 49 10 0 20 7 23 15 5 11 20 15
55 14 27 -1 52 1 56 4 9 10 21 9 44 -3z"/>
<path d="M1730 4160 c-30 -4 -106 -13 -168 -20 -63 -7 -108 -16 -101 -21 7 -4
27 -5 45 -2 21 3 40 0 55 -11 13 -9 32 -16 43 -16 28 0 12 -13 -68 -54 -47
-25 -73 -33 -85 -27 -9 5 -49 14 -88 21 -40 7 -73 17 -73 22 0 4 4 8 9 8 5 0
11 9 14 20 4 14 14 20 34 20 15 0 35 5 43 10 20 13 10 12 -91 -3 l-76 -12 226
-377 c125 -207 229 -379 232 -382 3 -3 55 1 115 9 60 8 188 24 284 35 96 11
190 23 207 26 l32 6 -82 122 c-46 66 -108 157 -138 201 -31 44 -91 132 -134
195 -123 181 -166 240 -173 239 -4 -1 -32 -5 -62 -9z m237 -467 l32 -5 -32
-49 c-18 -27 -36 -49 -40 -49 -5 0 -5 5 -1 11 4 8 1 8 -12 1 -31 -16 -154 -14
-154 3 0 7 -3 20 -6 29 -4 11 2 19 19 25 14 5 26 14 28 20 2 5 23 11 47 12 24
2 46 7 49 12 3 4 12 5 22 2 9 -4 30 -9 48 -12z"/>
<path d="M3135 4145 c-60 -8 -267 -32 -459 -55 -192 -22 -351 -42 -354 -45 -3
-2 20 -37 50 -77 29 -40 92 -124 138 -187 l85 -113 40 5 c22 3 70 9 108 13 37
4 67 11 67 16 0 6 -7 8 -15 4 -12 -4 -150 -20 -187 -21 -4 0 -65 79 -137 175
-130 175 -130 175 -103 182 15 4 173 24 352 43 179 20 376 43 438 51 l112 14
34 -38 c233 -257 274 -307 258 -314 -9 -4 -52 -10 -94 -13 -43 -4 -78 -11 -78
-17 0 -5 8 -7 18 -4 9 2 47 7 84 11 133 13 137 -3 -45 200 -101 114 -168 181
-181 182 -12 1 -70 -5 -131 -12z"/>
<path d="M2904 3938 c-72 -18 -71 -73 2 -108 l46 -23 29 22 c20 15 34 19 47
13 30 -15 76 -9 80 11 10 52 -121 107 -204 85z"/>
<path d="M2617 3909 c-27 -4 -51 -9 -53 -12 -3 -3 72 -106 94 -129 10 -10 140
8 158 23 13 10 13 14 -1 30 -9 9 -28 20 -42 24 -19 4 -22 9 -14 19 26 31 -58
57 -142 45z"/>
<path d="M2679 2892 c-88 -79 17 -206 107 -129 21 19 27 32 27 66 0 50 -22 77
-69 87 -26 5 -38 1 -65 -24z m101 -12 c35 -35 25 -92 -21 -115 -38 -20 -46
-19 -74 10 -30 30 -32 64 -4 99 25 32 70 35 99 6z"/>
<path d="M3193 2910 c-28 -12 -43 -40 -43 -85 0 -93 129 -120 159 -33 16 44
-2 94 -39 113 -33 17 -45 18 -77 5z m87 -32 c29 -32 27 -81 -6 -107 -36 -28
-50 -26 -86 9 -25 26 -29 36 -24 63 3 18 14 38 23 45 26 19 70 14 93 -10z"/>
<path d="M2913 2870 c-33 -13 -47 -45 -27 -64 35 -36 154 -40 194 -8 30 24 20
57 -22 71 -37 13 -114 13 -145 1z"/>
<path d="M2220 1086 c0 -2 -29 -88 -65 -190 l-64 -186 49 0 c44 0 49 2 59 30
10 29 11 30 80 30 68 0 69 -1 80 -30 9 -28 14 -30 59 -30 l49 0 -66 190 -66
190 -57 0 c-32 0 -58 -2 -58 -4z"/>
<path d="M2510 900 l0 -190 45 0 45 0 0 115 c0 63 3 115 8 115 4 -1 39 -51 77
-113 l71 -112 47 -3 47 -3 0 190 0 191 -45 0 -44 0 -3 -116 -3 -117 -54 84
c-30 46 -63 99 -74 117 -17 29 -23 32 -68 32 l-49 0 0 -190z"/>
<path d="M2940 900 l0 -190 45 0 45 0 0 190 0 190 -45 0 -45 0 0 -190z"/>
<path d="M3110 900 l0 -190 45 0 45 0 0 102 c0 56 3 98 7 94 4 -4 24 -49 44
-99 l37 -92 37 0 37 0 42 100 41 100 3 -102 3 -103 44 0 45 0 0 191 0 190 -52
-3 -52 -3 -53 -124 c-29 -68 -54 -126 -56 -128 -2 -2 -28 55 -58 127 l-54 130
-52 0 -53 0 0 -190z"/>
<path d="M3620 900 l0 -190 115 0 115 0 0 35 0 35 -71 0 -70 0 3 43 3 42 63 3
63 3 -3 32 c-3 32 -3 32 -66 35 l-63 3 3 37 3 37 68 3 67 3 0 34 0 35 -115 0
-115 0 0 -190z"/>
</g>
</svg>
